<svg width="24" height="24" viewBox="0 0 24 24" fill="none" xmlns="http://www.w3.org/2000/svg">
<path d="M8.77002 2.5C8.49668 2.59733 8.23002 2.70533 7.97002 2.824M5.42502 4.466C5.1984 4.66408 4.98085 4.87229 4.77302 5.09M3.03202 7.565C2.84535 7.93833 2.68302 8.324 2.54502 8.722M2.01602 11.392C1.99402 11.781 1.99502 12.178 2.01802 12.567M2.56802 15.266C2.70135 15.6393 2.85602 16.0027 3.03202 16.356M4.69102 18.743C4.93502 19.005 5.19268 19.2537 5.46402 19.489M7.77602 21.006C8.17269 21.1974 8.58158 21.3625 9.00002 21.5M12 22C17.523 22 22 17.523 22 12C22 6.477 17.523 2 12 2" stroke="#0EB688" stroke-width="1.5" stroke-linecap="round" stroke-linejoin="round"/>
<path d="M12 13.5C12.3978 13.5 12.7794 13.342 13.0607 13.0607C13.342 12.7794 13.5 12.3978 13.5 12C13.5 11.6022 13.342 11.2206 13.0607 10.9393C12.7794 10.658 12.3978 10.5 12 10.5M12 13.5C11.6022 13.5 11.2206 13.342 10.9393 13.0607C10.658 12.7794 10.5 12.3978 10.5 12C10.5 11.6022 10.658 11.2206 10.9393 10.9393C11.2206 10.658 11.6022 10.5 12 10.5M12 13.5V16M12 10.5V6" stroke="black" stroke-width="1.5" stroke-linecap="round" stroke-linejoin="round"/>
</svg>
