<svg width="24" height="24" viewBox="0 0 24 24" fill="none" xmlns="http://www.w3.org/2000/svg">
<path d="M14.98 7.01603C14.98 7.01603 15.48 7.51603 15.98 8.51603C15.98 8.51603 17.569 6.01602 18.98 5.51602M9.99499 2.02103C7.49599 1.91603 5.56599 2.20303 5.56599 2.20303C4.34699 2.29103 2.01099 2.97303 2.01099 6.96503C2.01099 10.921 1.98599 15.799 2.01099 17.744C2.01099 18.932 2.74699 21.704 5.29299 21.852C8.38799 22.032 13.963 22.071 16.521 21.852C17.205 21.813 19.485 21.276 19.773 18.796C20.072 16.226 20.013 14.441 20.013 14.016" stroke="#0EB688" stroke-width="1.5" stroke-linecap="round" stroke-linejoin="round"/>
<path d="M6.97998 13.016H10.98M6.97998 17.016H14.98M22 7.01599C22 9.77699 19.76 12.016 16.995 12.016C16.338 12.0167 15.6872 11.8878 15.08 11.6368C14.4728 11.3858 13.921 11.0177 13.4562 10.5533C12.9914 10.0889 12.6226 9.53752 12.3711 8.93057C12.1195 8.32361 11.99 7.67302 11.99 7.01599C11.99 4.25399 14.231 2.01599 16.995 2.01599C17.652 2.01534 18.3027 2.14418 18.9099 2.39516C19.5171 2.64614 20.0689 3.01433 20.5337 3.47869C20.9986 3.94305 21.3673 4.49447 21.6189 5.10142C21.8705 5.70837 22 6.35896 22 7.01599Z" stroke="#E28700" stroke-width="1.5" stroke-linecap="round" stroke-linejoin="round"/>
</svg>
