<svg width="24" height="24" viewBox="0 0 24 24" fill="none" xmlns="http://www.w3.org/2000/svg">
<path d="M22 9.5C21.963 7.248 21.79 5.947 20.956 5.013C20.7864 4.82328 20.6007 4.64863 20.401 4.491C19.146 3.5 17.266 3.5 13.506 3.5H10.504C6.744 3.5 4.864 3.5 3.608 4.49C3.40821 4.64794 3.22252 4.82293 3.053 5.013C2 6.193 2 7.963 2 11.5C2 15.037 2 16.806 3.053 17.987C3.22233 18.1763 3.40733 18.3503 3.608 18.509C4.864 19.5 6.744 19.5 10.504 19.5H11M2 8.5H22" stroke="#0EB688" stroke-width="1.5" stroke-linecap="round" stroke-linejoin="round"/>
<path d="M19.333 12.5L20.157 13.258C20.336 13.434 20.425 13.522 20.394 13.597C20.363 13.672 20.235 13.672 19.982 13.672H16.878C15.288 13.672 14 14.938 14 16.5C14 16.852 14.066 17.19 14.185 17.5M16.667 20.5L15.843 19.742C15.664 19.566 15.575 19.478 15.606 19.403C15.637 19.328 15.765 19.328 16.018 19.328H19.122C20.712 19.328 22 18.062 22 16.5C22 16.148 21.934 15.81 21.815 15.5" stroke="#E28700" stroke-width="1.5" stroke-linecap="round" stroke-linejoin="round"/>
</svg>
