<svg width="24" height="24" viewBox="0 0 24 24" fill="none" xmlns="http://www.w3.org/2000/svg">
<path d="M18 2V4M6 2V4M21.5 11.5C21.496 7.634 21.427 5.628 20.248 4.354C18.996 3 16.98 3 12.95 3H11.05C7.02 3 5.004 3 3.752 4.354C2.5 5.707 2.5 7.886 2.5 12.244V12.757C2.5 17.114 2.5 19.293 3.752 20.647C4.952 21.943 6.805 21.997 10.5 22M3 8H21" stroke="#0EB688" stroke-width="1.5" stroke-linecap="round" stroke-linejoin="round"/>
<path d="M17.5 20.714V22M17.5 20.714C16.9564 20.7178 16.4201 20.5897 15.9369 20.3406C15.4537 20.0915 15.0382 19.729 14.726 19.284M17.5 20.714C18.0436 20.7178 18.5799 20.5897 19.0631 20.3406C19.5463 20.0915 19.9618 19.729 20.274 19.284M17.5 14.285C18.657 14.285 19.676 14.853 20.274 15.715C20.6383 16.2382 20.8337 16.8614 20.8337 17.499C20.8337 18.1366 20.6383 18.7588 20.274 19.282L21.5 20.07M17.5 14.285C16.9564 14.2812 16.4201 14.4093 15.9369 14.6584C15.4537 14.9075 15.0382 15.27 14.726 15.715C14.3617 16.2382 14.1663 16.8614 14.1663 17.499C14.1663 18.1366 14.3617 18.7588 14.726 19.282L13.5 20.07M17.5 14.285V13M21.5 14.929L20.274 15.717M13.5 14.93L14.726 15.718" stroke="#E28700" stroke-width="1.5" stroke-linecap="round" stroke-linejoin="round"/>
</svg>
