<svg width="24" height="24" viewBox="0 0 24 24" fill="none" xmlns="http://www.w3.org/2000/svg">
<path d="M2.5 12C2.5 7.522 2.5 5.282 3.891 3.891C5.282 2.5 7.521 2.5 12 2.5C16.478 2.5 18.718 2.5 20.109 3.891C21.5 5.282 21.5 7.521 21.5 12C21.5 16.478 21.5 18.718 20.109 20.109C18.718 21.5 16.479 21.5 12 21.5C7.522 21.5 5.282 21.5 3.891 20.109C2.5 18.718 2.5 16.479 2.5 12Z" stroke="white" stroke-width="1.5" stroke-linecap="round" stroke-linejoin="round"/>
<path d="M6.75 11.985V9.005C6.75 8.723 6.982 8.495 7.268 8.495H9.246C9.686 8.495 10.138 8.56999 10.466 8.85999C10.816 9.16999 11.156 9.65 11.14 10.29C11.12 11.04 10.574 11.923 9.773 11.985C8.973 12.047 8.22 11.985 6.75 11.985ZM6.75 11.985L6.751 14.968C6.751 15.25 6.983 15.478 7.269 15.481C8.409 15.491 9.073 15.532 9.774 15.478C10.574 15.417 11.121 14.532 11.141 13.784C11.157 13.143 10.817 12.663 10.467 12.353C10.139 12.063 9.687 11.987 9.247 11.987L6.75 11.985ZM16.796 14.965C16.358 15.39 14.224 16.229 13.455 14.021C13.375 13.8 13.311 13.324 13.348 12.957M13.348 12.957C13.412 12.331 13.688 11.454 14.712 11.096C16.18 10.583 17.103 12.006 17.342 12.957H13.348ZM14.59 9.001H15.95" stroke="white" stroke-width="1.5" stroke-linecap="round" stroke-linejoin="round"/>
</svg>
