<svg width="24" height="24" viewBox="0 0 24 24" fill="none" xmlns="http://www.w3.org/2000/svg">
<path d="M2 4C2 4.943 2 5.414 2.293 5.707C2.586 6 3.057 6 4 6C4.943 6 5.414 6 5.707 5.707C6 5.414 6 4.943 6 4C6 3.057 6 2.586 5.707 2.293C5.414 2 4.943 2 4 2C3.057 2 2.586 2 2.293 2.293C2 2.586 2 3.057 2 4ZM2 20C2 20.943 2 21.414 2.293 21.707C2.586 22 3.057 22 4 22C4.943 22 5.414 22 5.707 21.707C6 21.414 6 20.943 6 20C6 19.057 6 18.586 5.707 18.293C5.414 18 4.943 18 4 18C3.057 18 2.586 18 2.293 18.293C2 18.586 2 19.057 2 20ZM10 12C10 12.943 10 13.414 10.293 13.707C10.586 14 11.057 14 12 14C12.943 14 13.414 14 13.707 13.707C14 13.414 14 12.943 14 12C14 11.057 14 10.586 13.707 10.293C13.414 10 12.943 10 12 10C11.057 10 10.586 10 10.293 10.293C10 10.586 10 11.057 10 12ZM18 4C18 4.943 18 5.414 18.293 5.707C18.586 6 19.057 6 20 6C20.943 6 21.414 6 21.707 5.707C22 5.414 22 4.943 22 4C22 3.057 22 2.586 21.707 2.293C21.414 2 20.943 2 20 2C19.057 2 18.586 2 18.293 2.293C18 2.586 18 3.057 18 4ZM18 20C18 20.943 18 21.414 18.293 21.707C18.586 22 19.057 22 20 22C20.943 22 21.414 22 21.707 21.707C22 21.414 22 20.943 22 20C22 19.057 22 18.586 21.707 18.293C21.414 18 20.943 18 20 18C19.057 18 18.586 18 18.293 18.293C18 18.586 18 19.057 18 20Z" stroke="#0EB688" stroke-width="1.5" stroke-linecap="round" stroke-linejoin="round"/>
<path d="M2 12C2 12.943 2 13.414 2.293 13.707C2.586 14 3.057 14 4 14C4.943 14 5.414 14 5.707 13.707C6 13.414 6 12.943 6 12C6 11.057 6 10.586 5.707 10.293C5.414 10 4.943 10 4 10C3.057 10 2.586 10 2.293 10.293C2 10.586 2 11.057 2 12ZM10 4C10 4.943 10 5.414 10.293 5.707C10.586 6 11.057 6 12 6C12.943 6 13.414 6 13.707 5.707C14 5.414 14 4.943 14 4C14 3.057 14 2.586 13.707 2.293C13.414 2 12.943 2 12 2C11.057 2 10.586 2 10.293 2.293C10 2.586 10 3.057 10 4ZM10 20C10 20.943 10 21.414 10.293 21.707C10.586 22 11.057 22 12 22C12.943 22 13.414 22 13.707 21.707C14 21.414 14 20.943 14 20C14 19.057 14 18.586 13.707 18.293C13.414 18 12.943 18 12 18C11.057 18 10.586 18 10.293 18.293C10 18.586 10 19.057 10 20ZM18 12C18 12.943 18 13.414 18.293 13.707C18.586 14 19.057 14 20 14C20.943 14 21.414 14 21.707 13.707C22 13.414 22 12.943 22 12C22 11.057 22 10.586 21.707 10.293C21.414 10 20.943 10 20 10C19.057 10 18.586 10 18.293 10.293C18 10.586 18 11.057 18 12Z" stroke="#E28700" stroke-width="1.5" stroke-linecap="round" stroke-linejoin="round"/>
</svg>
