<svg width="24" height="24" viewBox="0 0 24 24" fill="none" xmlns="http://www.w3.org/2000/svg">
<path d="M21 10C20.99 6.415 20.886 4.528 19.609 3.318C18.217 2 15.979 2 11.5 2C7.022 2 4.782 2 3.391 3.318C2 4.636 2 6.758 2 11C2 15.242 2 17.364 3.391 18.682C4.618 19.844 6.503 19.982 10 19.998" stroke="#0EB688" stroke-width="1.5" stroke-linecap="round" stroke-linejoin="round"/>
<path d="M2 8.5H21" stroke="#0EB688" stroke-width="1.5" stroke-linecap="round" stroke-linejoin="round"/>
<path d="M6.5 5.5H6.509M10.5 5.5H10.509" stroke="#E28700" stroke-width="1.5" stroke-linecap="round" stroke-linejoin="round"/>
<path d="M15.1102 12.722C14.749 12.3608 14.5687 12.1805 14.3681 12.0937C14.0795 11.9688 13.7527 11.9688 13.4641 12.0937C13.2641 12.1798 13.0832 12.3608 12.722 12.722C12.3608 13.0832 12.1805 13.2641 12.0937 13.4641C11.9688 13.7527 11.9688 14.0795 12.0937 14.3681C12.1798 14.5681 12.3608 14.749 12.722 15.1102L15.8124 18.2006C16.5736 18.9619 16.9539 19.3422 17.4308 19.568C17.9077 19.7939 18.4437 19.8462 19.5151 19.952L20 20L19.952 19.5151C19.8462 18.4437 19.7939 17.9077 19.568 17.4308C19.3422 16.9539 18.9619 16.5736 18.2007 15.8124L15.1102 12.722Z" stroke="#E28700" stroke-width="1.5" stroke-linecap="round" stroke-linejoin="round"/>
</svg>
