<svg width="24" height="24" viewBox="0 0 24 24" fill="none" xmlns="http://www.w3.org/2000/svg">
<path d="M4 9C4 5.7 4 4.05 5.172 3.025C6.344 2 8.229 2 12 2C15.771 2 17.657 2 18.828 3.025C19.999 4.05 20 5.7 20 9V15C20 18.3 20 19.95 18.828 20.975C17.656 22 15.771 22 12 22C8.229 22 6.343 22 5.172 20.975C4.001 19.95 4 18.3 4 15V9Z" stroke="#0EB688" stroke-width="1.5" stroke-linecap="round" stroke-linejoin="round"/>
<path d="M11 19H13" stroke="#0EB688" stroke-width="1.5" stroke-linecap="round" stroke-linejoin="round"/>
<rect x="7" y="5" width="10" height="11" rx="1" stroke="#E28700" stroke-width="1.5" stroke-linecap="round" stroke-linejoin="round"/>
</svg>
