<svg width="24" height="24" viewBox="0 0 24 24" fill="none" xmlns="http://www.w3.org/2000/svg">
<path d="M7.35402 18C5.23102 18 4.16902 18 3.41402 17.547C2.92349 17.2554 2.52496 16.8315 2.26402 16.324C1.87202 15.554 1.97702 14.537 2.18902 12.502C2.36502 10.804 2.45302 9.955 2.88702 9.331C3.17202 8.921 3.55702 8.586 4.00802 8.354C4.69502 8 5.58202 8 7.35402 8H16.646C18.418 8 19.305 8 19.992 8.354C20.443 8.586 20.828 8.921 21.113 9.331C21.547 9.955 21.635 10.804 21.811 12.503C22.023 14.537 22.128 15.555 21.735 16.324C21.4746 16.8313 21.0768 17.2551 20.587 17.547C19.83 18 18.769 18 16.646 18M17 8V6C17 4.114 17 3.172 16.414 2.586C15.828 2 14.886 2 13 2H11C9.11402 2 8.17202 2 7.58602 2.586C7.00002 3.172 7.00002 4.114 7.00002 6V8" stroke="#0EB688" stroke-width="1.5" stroke-linecap="round" stroke-linejoin="round"/>
<path d="M13.9891 16H10.0101C9.32507 16 8.98207 16 8.69007 16.109C8.29336 16.2606 7.96009 16.5428 7.74507 16.909C7.57707 17.19 7.49407 17.551 7.32807 18.272C7.06807 19.4 6.93807 19.963 7.02707 20.415C7.14407 21.017 7.51107 21.527 8.02207 21.797C8.40407 22 8.94007 22 10.0101 22H13.9881C15.0581 22 15.5941 22 15.9761 21.797C16.4861 21.527 16.8541 21.017 16.9711 20.415C17.0601 19.963 16.9301 19.4 16.6711 18.272C16.5041 17.552 16.4211 17.19 16.2531 16.91C16.038 16.5432 15.7043 16.2607 15.3071 16.109C15.0171 16 14.6741 16 13.9881 16M18.0001 12H18.0091" stroke="#E28700" stroke-width="1.5" stroke-linecap="round" stroke-linejoin="round"/>
</svg>
