<svg width="24" height="24" viewBox="0 0 24 24" fill="none" xmlns="http://www.w3.org/2000/svg">
<path d="M12 2C17.524 2 22 6.478 22 12C22 17.522 17.524 22 12 22M9 21.5C7.81608 21.1055 6.70793 20.5123 5.723 19.746M5.723 4.254C6.71103 3.49246 7.81834 2.89978 9 2.5M2 10.246C2.22278 9.07334 2.66229 7.95252 3.296 6.941M2 13.754C2.22278 14.9267 2.66229 16.0475 3.296 17.059" stroke="#0EB688" stroke-width="1.5" stroke-linecap="round" stroke-linejoin="round"/>
<path d="M8 16.5C10.073 14.302 13.905 14.199 16 16.5M14.218 9.75C14.218 10.993 13.222 12 11.992 12C10.762 12 9.767 10.993 9.767 9.75C9.767 8.507 10.763 7.5 11.993 7.5C13.223 7.5 14.218 8.507 14.218 9.75Z" stroke="#E28700" stroke-width="1.5" stroke-linecap="round" stroke-linejoin="round"/>
</svg>
